M48
;FILE_FORMAT=2:4
INCH
;TYPE=PLATED
T01C0.016
T02C0.024
T03C0.032
T04C0.044
T05C0.048
T06C0.060
T07C0.070
T08C0.117
T09C0.124
T10C0.157
%
T01
X+045800Y+070250
X+045850Y+071200
X+047650Y+075350
X+047750Y+079800
X+047250Y+082000
X+047750Y+081200
X+045600Y+085700
Y+085300
X+046550Y+102800
X+047000
X+047400
X+046750Y+102500
X+047200
X+047600
X+047800Y+102800
X+049750Y+070300
Y+071150
X+050700Y+072550
X+048750Y+075800
X+048800Y+076100
X+050700Y+075900
X+050500Y+076150
X+049750Y+080250
X+050250Y+079800
X+049750Y+081550
X+050750Y+082000
X+048250
X+048550Y+086350
X+048250Y+087400
X+048500Y+088650
X+048400Y+089150
Y+089550
X+050100Y+091600
X+048600Y+092450
X+048350Y+090750
X+049400Y+091100
X+048750Y+093700
X+048790Y+095160
Y+094090
X+050750Y+093700
X+049350Y+096400
X+048200Y+102800
X+053600Y+069600
X+053550Y+071050
X+053600Y+072350
X+053500Y+076100
X+051750Y+079800
X+053750Y+082000
X+051750
X+052400Y+086300
X+053450
X+051500Y+085300
X+051350Y+087350
X+052400Y+088300
X+053500
X+052900Y+089750
X+053700Y+091400
Y+092750
X+052350Y+090750
Y+090350
X+053500
X+052950Y+092300
X+052550Y+095200
X+052150
X+052500Y+096800
X+055600Y+076000
X+054550Y+076150
X+054750Y+079800
X+055300Y+081550
X+054750Y+082000
X+054250Y+081200
X+056050Y+084450
X+054650Y+089300
X+056100Y+091650
X+054650
X+055750Y+092300
X+056600Y+093850
X+055250Y+094450
X+056750Y+097500
X+056250Y+097100
X+054800Y+096850
X+057700Y+079150
X+059650Y+078700
X+059750Y+082350
X+057950Y+083400
X+058150Y+081200
X+058250Y+089700
X+058900Y+092300
X+058250Y+090700
X+057250Y+094450
X+058250Y+101750
X+057620Y+103750
X+062250Y+068600
X+062300Y+084450
X+062700
X+062050Y+085600
X+061000Y+084450
Y+089500
X+060550Y+091000
X+060400Y+094450
Y+093450
X+061750Y+097000
X+062200Y+097250
X+061500Y+099620
X+061870
X+061120
X+060750
X+063850Y+073250
X+064900Y+083000
X+064250Y+082350
X+064350Y+083400
X+065350Y+083000
X+065000Y+086700
X+065200Y+092200
X+065600
X+063870Y+097120
X+064250
X+064620
X+065000
X+063750Y+099620
X+064870
X+064120
X+064500
X+065800Y+103000
X+067900Y+068600
X+067250Y+070250
X+067750Y+070200
X+067350Y+072500
X+066750Y+072550
X+066250Y+072450
X+067550Y+084950
X+068500Y+086300
X+067250Y+093750
X+068000Y+094850
X+068500Y+097000
X+069550Y+067850
X+069400Y+071450
X+071600Y+070900
X+070100Y+070600
X+071000Y+070350
X+069550Y+074500
X+070450Y+074650
X+071200Y+072600
X+070050Y+072400
X+070000Y+074500
X+070700Y+075850
X+070300
X+069900Y+075800
X+071650Y+080200
X+071500Y+083450
X+071600Y+082350
X+071550Y+084350
X+069500Y+086200
X+071000Y+086700
X+070000
X+070450Y+086350
X+071550Y+086800
X+069800Y+094150
X+071400Y+093450
X+069300Y+093400
Y+094850
X+074000Y+068600
X+074500
X+073500
X+072550Y+070950
X+074000Y+071000
X+073500Y+072550
X+074000Y+074500
X+074600Y+073650
X+074050Y+072300
X+074600Y+073150
X+074800Y+074050
X+074650Y+077250
X+074500Y+078650
X+073350Y+078250
X+074600Y+079500
X+072600Y+081600
X+072650Y+082000
Y+082400
X+073100Y+083000
X+073450Y+084950
X+073350Y+085350
Y+085800
X+074100Y+086450
X+073400Y+086300
X+072500Y+086600
X+072250Y+088850
X+074250Y+087800
X+074600Y+090950
X+072650Y+094150
X+073600Y+094700
X+072200Y+093850
X+074550Y+105800
Y+105350
X+074150Y+105800
Y+105350
X+073750
Y+105800
X+073350
Y+105350
X+077050Y+068600
X+075900Y+070700
X+077450Y+073500
X+075750Y+075850
X+076150
X+076600Y+076050
X+076900Y+076300
X+075850Y+077700
X+077350Y+076150
X+075750Y+078250
X+075350
X+075500Y+080000
X+077700Y+081650
X+076650Y+083150
X+077150
X+077650
X+076650Y+083650
X+077150
X+077650
Y+082650
X+077150
X+076650
X+076150Y+083650
Y+083150
Y+082650
X+075900Y+081660
X+075500Y+081450
X+076400Y+085700
X+075300Y+085650
X+077650Y+084650
X+077150
X+076650
X+076150
X+075900Y+085900
X+076990Y+085890
X+077600Y+089350
X+077400Y+089750
X+076900Y+087400
X+076450Y+087600
X+076150Y+090550
X+075810Y+090840
X+077200Y+092700
X+076650Y+090250
X+076750Y+093450
X+077000Y+097000
X+076600Y+101000
X+079250Y+068600
X+078550Y+071750
X+080500Y+072760
Y+074510
X+079300Y+075800
X+078750Y+077250
X+079750Y+075850
X+080250Y+076400
X+079550Y+078600
X+079750Y+079000
X+080600Y+080000
X+080500Y+080550
X+079200Y+082250
X+079400Y+083550
X+079350Y+082700
X+078300Y+081600
X+079350Y+081550
X+078300Y+085700
X+079400Y+084900
X+078700Y+085700
X+079100Y+085500
X+080400Y+089100
X+079500Y+088100
X+079200Y+087850
X+078700Y+087550
X+079700Y+088500
X+080150Y+088750
X+079500Y+094350
X+080400
X+079000Y+098700
X+079500Y+098250
X+078550Y+096850
X+081750Y+068600
X+082050Y+067300
X+083800Y+068100
X+083000Y+072750
Y+074510
X+082000Y+077250
X+083050Y+076000
X+083700Y+082500
X+083100Y+082250
X+083300Y+081900
X+083100Y+084250
X+083500Y+089100
X+083440Y+090840
X+083800Y+092500
X+083500Y+093450
Y+098250
X+083000
X+081500Y+101350
X+081800Y+101800
X+083000Y+099200
X+084250Y+068600
X+086750Y+068590
X+085500Y+066900
Y+072750
Y+074510
X+084500Y+073150
X+084450Y+077700
X+086500Y+076000
X+084700Y+080300
X+085000Y+083650
X+085500Y+083750
X+086000Y+086050
X+086500Y+087450
X+085500Y+089100
X+086500Y+090750
X+085500
X+086000
X+086450Y+092500
X+084200Y+090250
X+085250Y+098250
X+089250Y+068590
X+089700Y+067900
X+089650Y+074050
X+088000Y+072760
Y+074510
X+087450Y+080450
X+087850Y+079200
X+087350Y+083750
X+087250Y+082750
X+088550Y+084500
X+088750Y+086150
X+087750Y+088400
X+088100Y+089100
X+088650Y+087450
X+089550Y+088050
X+088000Y+090800
X+087250Y+094500
X+088200Y+095550
X+088290Y+093800
X+088000Y+098250
X+087250Y+102300
X+091750Y+068590
X+091350Y+068600
X+090550Y+067550
X+090500Y+074510
Y+072750
X+091950Y+074000
X+092350Y+077250
X+090300Y+078500
X+092400Y+079200
X+091050Y+084400
X+091500Y+085600
X+090500Y+085800
X+091400Y+092750
X+092550Y+093790
X+092500Y+095550
X+090450Y+093790
X+090400Y+095540
X+095600Y+068400
X+095000
X+094250Y+070100
X+094050Y+070750
X+093550Y+073900
X+095450Y+073850
X+093650Y+079850
Y+082550
X+094550Y+093780
X+094500Y+095540
X+097600Y+064850
Y+070100
X+098350Y+074550
X+096650Y+073850
X+097750Y+073600
X+096750Y+072450
X+096200Y+072500
X+096850Y+076350
X+098050Y+078350
X+098600Y+086500
X+096450Y+088400
X+097550Y+095550
X+096750Y+093780
X+096700Y+095540
X+098200Y+094600
X+097950Y+100550
X+097300Y+100600
X+100000Y+070750
X+099350Y+071600
X+101800Y+074500
X+101650Y+077300
X+101400Y+084450
X+099400Y+084200
X+099800Y+088650
X+101650Y+088850
X+100350Y+098500
X+103500Y+077300
Y+076900
Y+076450
X+104550Y+080250
X+104050Y+079700
X+102500Y+079300
X+103100Y+086050
X+104650Y+088850
X+102450
X+103150Y+095550
Y+094500
X+103100Y+093400
X+102400Y+094350
X+105950Y+072350
X+106450Y+076050
X+106050Y+075750
X+107500Y+079850
X+106800Y+083600
X+106650Y+082550
X+106600Y+086550
X+106250Y+084450
X+105700Y+088500
X+106950Y+088850
X+110100Y+076050
Y+076450
X+108350Y+082550
X+108850Y+081250
X+109050Y+094500
Y+098400
X+112150Y+080200
X+113250Y+079800
X+113600
X+113250Y+079400
X+113650
X+112550Y+082300
X+111700Y+082050
X+112600Y+085400
X+113050Y+084650
X+113500Y+093400
X+111200Y+093650
Y+095800
X+112150Y+097000
X+112350Y+100500
X+113100Y+100850
X+113050Y+100150
X+115250Y+072300
X+116150Y+085850
X+115650Y+097200
X+114850Y+098400
X+116550
X+116250Y+099800
X+118750Y+098750
X+119700Y+097200
X+118400Y+097650
X+117350Y+100500
X+117900Y+099800
X+121000Y+076200
X+120600
X+121000Y+076600
X+120600
X+121000Y+077000
X+120600
X+122300Y+075600
Y+085050
X+122650Y+092100
X+122300Y+090450
Y+092800
X+122450Y+095200
X+120800Y+094050
X+122700Y+093700
X+121000Y+100500
X+120800Y+099800
X+125700Y+082800
Y+085850
X+124150Y+087750
X+124550Y+088900
X+124150Y+097950
X+123650Y+098750
X+127850Y+076200
X+127900Y+077000
X+128000Y+076550
X+127850Y+075750
Y+077450
X+127300Y+090200
X+126750Y+097150
Y+098800
X+126350Y+100850
X+048350Y+090000
X+049700Y+099050
X+053400Y+074950
X+053100
X+051450Y+096100
X+055450Y+077850
X+054600Y+092900
X+054200Y+096100
X+059650Y+077850
X+058600Y+083850
X+065800
X+073000Y+069000
X+073350Y+080900
X+072700Y+098950
X+077100Y+069050
X+076650Y+084150
X+077150
X+077650
X+076150
X+075350Y+074900
X+077350Y+077900
X+079250Y+083950
X+078200Y+074950
X+079400Y+092950
X+080500Y+093050
X+081800Y+074850
X+082450Y+075000
X+082800Y+081100
X+086000Y+083950
X+084500Y+099150
X+089000Y+074950
X+088650
X+089200Y+092950
X+092150Y+084050
X+093200Y+083950
X+096900
X+098650Y+077850
X+098350
X+098000
X+098350Y+074950
X+099700Y+093100
X+100050Y+098850
X+104550Y+084050
X+104650Y+087100
X+102750
X+104450Y+098850
X+107150Y+071850
X+105700Y+078000
Y+087100
X+109850Y+098850
X+112650Y+083950
X+118400Y+074850
X+120750Y+075000
X+047950Y+075350
X+048000Y+077450
Y+102500
X+050900Y+076150
X+060000Y+078400
Y+084950
X+053950Y+084600
X+051100Y+088900
Y+092500
X+071950Y+070350
X+072000Y+074500
X+071950Y+072300
X+072050Y+084800
X+066000Y+086600
X+069000Y+086700
X+065950Y+088250
X+072000Y+092100
X+065900Y+093850
X+069110Y+095460
X+075000Y+069900
X+075100Y+070350
X+078000Y+072750
Y+074510
X+084050Y+078900
X+074850Y+079850
X+080900Y+081400
X+078150Y+083650
Y+083150
Y+082650
X+084050Y+083250
X+081000Y+082500
X+075000Y+085900
X+075050Y+084700
X+078150Y+084650
X+081050Y+085800
X+075050Y+085300
Y+087300
X+081000Y+092750
X+074900Y+093450
X+075000Y+095050
X+084000Y+094450
X+077900Y+096500
X+081000Y+101000
X+087100Y+068100
X+089850Y+066950
X+093000Y+067000
X+093050Y+070750
X+096100Y+074550
X+095950Y+079800
X+090050Y+084500
X+087000Y+089200
Y+087450
X+087150Y+097650
X+105000Y+074500
X+107950
X+101950Y+077650
Y+077300
X+105000Y+083150
X+108000Y+088850
X+102100Y+096800
X+101900Y+099400
X+113950Y+072950
X+122950Y+073650
X+126000Y+092500
X+057000Y+101870
X+080950Y+074850
X+078150Y+084150
X+096050Y+083950
X+093050Y+093000
X+108150Y+084000
X+107950Y+098850
X+104850
T02
X+045570Y+093220
Y+095980
X+046630Y+095580
Y+093620
X+045450Y+093220
X+045690
Y+095980
X+045450
X+046630Y+095650
Y+095510
Y+093690
Y+093550
T03
X+071100Y+077700
X+069700Y+081500
Y+082500
X+089030Y+078000
X+087650
X+089610Y+100050
X+088830
X+088040
X+087250
X+105000Y+078700
Y+077330
X+097250Y+079250
X+095250Y+078250
X+097250Y+077250
X+108400Y+078750
Y+077380
T04
X+109750Y+103000
Y+104000
Y+105000
X+065460Y+076000
X+063500
X+066500Y+092750
X+067500
X+082000Y+065000
X+081000Y+066000
Y+065000
X+080000Y+066000
Y+065000
X+079000Y+066000
Y+065000
X+078000Y+066000
X+082000
X+078000Y+065000
X+068000Y+090500
X+069000Y+089500
Y+090500
X+070000Y+089500
Y+090500
X+071000Y+089500
Y+090500
X+063000Y+089500
X+072000
X+063000Y+090500
X+064000Y+089500
Y+090500
X+065000Y+089500
Y+090500
X+066000Y+089500
Y+090500
X+067000Y+089500
Y+090500
X+068000Y+089500
X+072000Y+090500
X+062640Y+095280
X+060860
X+062640Y+092720
X+060860
X+121620Y+081220
X+123400
X+121620Y+083780
X+123400
X+123390Y+077780
X+121620
X+123390Y+075220
X+121620
X+123400Y+089780
X+121630
X+123400Y+087220
X+121630
X+123390Y+095780
X+121620
X+123390Y+093220
X+121620
X+101490Y+080990
X+092490
X+091490
X+090490
X+089490
X+088490
X+103490
X+102490
X+100490
X+099490
X+098490
X+097490
X+096490
X+095490
X+094490
X+093490
T05
X+067040Y+065900
X+068130
X+069220
X+070310
X+066500Y+067000
X+067590
X+068680
X+069770
X+070860
X+105150Y+073300
X+107910
X+061000Y+085620
Y+077750
T06
X+052450Y+101250
Y+100250
Y+099250
X+073750Y+100750
Y+099750
Y+098750
X+101050Y+102000
Y+101000
Y+100000
X+054250Y+099250
Y+100250
Y+101250
X+071750Y+098750
Y+099750
Y+100750
X+070000
Y+099750
Y+098750
X+075600
Y+099750
Y+100750
X+110750Y+069000
Y+068000
Y+067000
X+055060Y+065520
Y+068020
Y+070520
X+061440
Y+068020
Y+065520
T07
X+092170Y+067830
X+093820
X+092170Y+065660
X+093820
X+107820
X+106170
X+107820Y+067830
X+106170
X+099170
X+100820
X+099170Y+065660
X+100820
X+112920Y+067830
X+114570
X+112920Y+065660
X+114570
X+054400Y+102920
X+052750
X+051090
X+054400Y+105090
X+052750
X+051090
X+071820Y+102920
X+070170
X+071820Y+105090
X+070170
X+081650Y+102920
X+080000
X+078340
X+076690
X+083300Y+105090
X+081650
X+080000
X+078340
X+083300Y+102920
X+076690Y+105090
X+103850
X+105500
X+107160
X+103850Y+102920
X+105500
X+107160
X+112000
Y+105090
X+051000Y+065660
Y+067830
X+119670
X+121320
X+119670Y+065660
X+121320
X+092190Y+105090
X+098800Y+102920
X+093840Y+105090
X+095500
X+097150
X+098800
X+092190Y+102920
X+093840
X+095500
X+097150
X+061340Y+105090
X+063000
X+064650
X+061340Y+102920
X+063000
X+064650
X+116700Y+105090
X+123310Y+102920
X+118350Y+105090
X+120000
X+121660
X+123310
X+116700Y+102920
X+118350
X+120000
X+121660
T08
X+085450Y+095760
X+116560
X+115970Y+081580
X+086040
T09
X+063750Y+066430
X+073610
T10
X+046950Y+064700
Y+106040
X+087500Y+064700
Y+106040
X+128050Y+064710
Y+106040
T00
M30
